<?xml version="1.0" encoding="UTF-8" standalone="no"?>
<!-- Generator: Adobe Illustrator 19.0.0, SVG Export Plug-In . SVG Version: 6.00 Build 0)  -->

<svg
   version="1.1"
   id="Layer_1"
   x="0px"
   y="0px"
   viewBox="0 0 330 330"
   style="enable-background:new 0 0 330 330;"
   xml:space="preserve"
   sodipodi:docname="Arrow.svg"
   inkscape:version="1.1.1 (3bf5ae0d25, 2021-09-20)"
   xmlns:inkscape="http://www.inkscape.org/namespaces/inkscape"
   xmlns:sodipodi="http://sodipodi.sourceforge.net/DTD/sodipodi-0.dtd"
   xmlns="http://www.w3.org/2000/svg"
   xmlns:svg="http://www.w3.org/2000/svg"><defs
   id="defs36" /><sodipodi:namedview
   id="namedview34"
   pagecolor="#ffffff"
   bordercolor="#666666"
   borderopacity="1.0"
   inkscape:pageshadow="2"
   inkscape:pageopacity="0.0"
   inkscape:pagecheckerboard="0"
   showgrid="false"
   inkscape:zoom="0.62424242"
   inkscape:cx="-148.17961"
   inkscape:cy="178.61651"
   inkscape:window-width="1920"
   inkscape:window-height="1013"
   inkscape:window-x="-9"
   inkscape:window-y="-9"
   inkscape:window-maximized="1"
   inkscape:current-layer="Layer_1" />
<path
   id="XMLID_18_"
   d="M315,0H15C6.716,0,0,6.716,0,15v300c0,8.284,6.716,15,15,15h300c8.284,0,15-6.716,15-15V15  C330,6.716,323.284,0,315,0z M215.606,234.394c5.858,5.857,5.858,15.355,0,21.213C212.678,258.535,208.839,260,205,260  s-7.678-1.464-10.606-4.394l-80-79.998c-2.813-2.813-4.394-6.628-4.394-10.606c0-3.978,1.58-7.794,4.394-10.607l80-80.002  c5.857-5.858,15.355-5.858,21.213,0c5.858,5.857,5.858,15.355,0,21.213l-69.393,69.396L215.606,234.394z" />
<g
   id="g3">
</g>
<g
   id="g5">
</g>
<g
   id="g7">
</g>
<g
   id="g9">
</g>
<g
   id="g11">
</g>
<g
   id="g13">
</g>
<g
   id="g15">
</g>
<g
   id="g17">
</g>
<g
   id="g19">
</g>
<g
   id="g21">
</g>
<g
   id="g23">
</g>
<g
   id="g25">
</g>
<g
   id="g27">
</g>
<g
   id="g29">
</g>
<g
   id="g31">
</g>
<path
   style="fill:#000080;stroke-width:0.566372"
   d="M 11.225806,329.1242 C 8.2106622,328.30934 5.1841145,326.19156 3.2219162,323.52362 0.0799131,319.25152 0.28318597,330.2295 0.28318597,164.81423 V 11.893811 L 1.4658544,9.3387794 C 2.8905974,6.2607717 5.5346194,3.5132845 8.7026146,1.8188334 L 11.044253,0.56637194 H 165.09742 319.15059 l 2.26548,1.22470626 c 3.01077,1.6275965 5.62455,4.4341678 7.03517,7.5540587 1.14966,2.5427131 1.15237,2.9056691 1.16163,155.1859131 0.006,103.43807 -0.17957,153.31721 -0.57661,154.74682 -0.87518,3.15127 -3.83542,6.61849 -7.337,8.59355 l -3.11505,1.75705 -152.35405,0.10599 C 44.913716,329.81887 13.336191,329.69455 11.225806,329.1242 Z M 210.19641,259.38255 c 3.47209,-1.18307 6.16063,-3.53771 8.15893,-7.14566 1.44344,-2.60617 1.67998,-3.63132 1.67998,-7.28103 0,-3.59503 -0.24401,-4.6879 -1.58788,-7.11181 -1.1181,-2.01666 -11.96761,-13.24273 -36.67039,-37.94309 l -35.08249,-35.07907 35.91742,-35.96845 c 34.75331,-34.802685 35.94641,-36.068147 36.81206,-39.044692 1.11243,-3.825123 1.12486,-5.854445 0.0579,-9.447469 -2.52719,-8.509965 -12.80596,-12.947188 -20.96853,-9.051869 -2.26586,1.081311 -11.2234,9.768217 -44.81757,43.46351 -46.82565,46.96662 -44.22817,43.91007 -43.69134,51.413 0.20324,2.84052 0.68272,4.60046 1.73642,6.37355 0.8006,1.3472 20.26963,21.21598 43.26451,44.15284 45.44439,45.32973 43.22288,43.38884 49.77877,43.49088 1.57991,0.0246 4.01543,-0.3447 5.41226,-0.82064 z"
   id="path1171" /><path
   style="fill:#ffffff;stroke-width:1.60194"
   d="M 155.01976,214.22781 C 116.81079,176.01884 110.53398,169.07295 110.53398,165 c 0,-4.07294 6.27681,-11.01884 44.48578,-49.22781 39.56075,-39.560748 45.04875,-44.485782 49.57087,-44.485782 6.53801,0 12.9745,5.634922 14.2966,12.516182 0.99511,5.179321 0.12497,6.205176 -36.0454,42.49547 C 162.45601,146.75147 145.7767,164.16734 145.7767,165 c 0,0.83266 16.67931,18.24853 37.06513,38.70194 36.17036,36.29029 37.04051,37.31616 36.0454,42.49547 -1.3221,6.88126 -7.75859,12.51618 -14.2966,12.51618 -4.52212,0 -10.01012,-4.92504 -49.57087,-44.48578 z"
   id="path1047" /></svg>
